<?xml version="1.0" encoding="utf-8"?>
<svg version="1.1" xmlns:xlink="http://www.w3.org/1999/xlink" width="20px" height="20px" xmlns="http://www.w3.org/2000/svg">
  <g transform="matrix(1 0 0 1 -185 -92 )">
    <path d="M 10.8571428571429 11.0915750824176  C 12.1465201373626 10.974358956044  13.2014651923077 10.3882783791209  13.9047618956044 9.45054945054945  L 14.4908425 9.68498167582417  L 15.0769230769231 8.63003662087912  L 14.6080585989011 8.16117217032967  C 14.8424908241758 7.69230769230769  14.9597069505494 7.10622711538462  14.9597069505494 6.52014651098901  C 14.9597069505494 5.93406590659341  14.8424908241758 5.34798532967033  14.6080585989011 4.87912087912088  L 15.0769230769231 4.4102564010989  L 14.4908425 3.35531134615385  L 13.9047618956044 3.5897435989011  C 13.2014651923077 2.65201467032967  12.1465201373626 2.06593406593407  10.9743589835165 1.94871793956044  L 10.7399267307692 1.24542123626374  L 9.56776557692308 1.24542123626374  L 9.45054945054945 1.83150184065934  C 8.27838826923077 2.06593406593407  7.22344321428572 2.65201467032967  6.52014651098901 3.5897435989011  L 5.93406593406593 3.35531134615385  L 5.34798535714286 4.4102564010989  L 5.81684980769231 4.87912087912088  C 5.58241758241758 5.34798535714286  5.46520145604396 5.93406593406593  5.46520145604396 6.52014651098901  C 5.46520145604396 7.10622708791209  5.58241758241758 7.69230769230769  5.81684980769231 8.16117217032967  L 5.34798535714286 8.63003662087912  L 5.93406593406593 9.68498167582417  L 6.52014651098901 9.45054945054945  C 7.22344321428571 10.3882783791209  8.27838826923077 10.9743589835165  9.45054945054945 11.0915750824176  L 9.56776557692308 11.6776556868132  L 10.7399267307692 11.6776556868132  L 10.8571428571429 11.0915750824176  Z M 6.28571428571429 2.06593406593407  C 6.98901098901099 1.59706958791209  7.57509156593407 1.24542123626374  8.27838826923077 1.01098901098901  L 8.39560439560439 0.0732600824175829  L 11.9120879120879 0.0732600824175829  L 12.0293040384615 1.01098901098901  C 12.7326007417582 1.24542123626374  13.4358974450549 1.59706958791209  13.9047618956044 2.06593406593407  L 14.7252747252747 1.71428571428571  L 16.7179487087912 4.76190475274725  L 16.0146520054945 5.34798535714286  C 16.1318681318681 5.69963370879121  16.1318681318681 6.05128206043956  16.1318681318681 6.40293041208791  C 16.1318681318681 6.75457876373626  16.1318681318681 7.10622711538461  16.0146520054945 7.45787546703296  L 16.7179487087912 8.04395604395604  L 14.9597069505494 11.0915750824176  L 14.1391941483516 10.7399267307692  C 13.5531135714286 11.2087912087912  12.967032967033 11.5604395604396  12.2637362637363 11.7948717857143  L 11.9120879120879 12.967032967033  L 8.3956043956044 12.967032967033  L 8.27838826923077 12.0293040384615  C 7.57509156593407 11.7948718131868  6.87179486263736 11.4432234615385  6.40293041208791 10.9743589835165  L 5.58241758241758 11.3260073351648  L 3.7069596978022 8.27838826923077  L 4.4102564010989 7.69230769230769  C 4.29304027472528 7.34065934065934  4.29304027472528 6.98901098901099  4.2930403021978 6.63736263736264  C 4.29304032967033 6.28571428571429  4.2930403021978 5.93406593406593  4.4102564010989 5.58241758241758  L 3.7069596978022 4.76190475274725  L 5.46520145604396 1.71428571428571  L 6.28571428571429 2.06593406593407  Z M 20 8.3956043956044  C 19.7655677747253 12.498168489011  16.8351648351648 16.0146520054945  12.967032967033 17.1868131868132  L 12.967032967033 20  L 11.7948717857143 20  L 11.7948717857143 16.3663003571429  C 15.6630036538462 15.5457875274725  18.5934065934066 12.3809523626374  18.8278388186813 8.3956043956044  L 20 8.3956043956044  Z M 7.10622711538461 20  L 7.10622711538461 17.1868131868132  C 3.23809524725275 16.0146520054945  0.307692307692307 12.498168489011  0.0732600824175813 8.27838826923077  L 1.24542123626373 8.27838826923077  C 1.47985346153846 12.2637362637363  4.4102564010989 15.5457875274725  8.27838826923077 16.2490842582418  L 8.27838826923077 20  L 7.10622711538461 20  Z M 12.498168489011 6.52014651098901  C 12.498168489011 7.80952379120879  11.5604395604396 8.86446884615384  10.1538461538462 8.86446887362637  C 8.86446887362637 8.86446887362637  7.80952381868132 7.80952381868132  7.80952381868132 6.52014651098901  C 7.80952381868132 5.2307692032967  8.86446887362637 4.17582417582417  10.1538461538462 4.17582417582417  C 11.4432234340659 4.17582417582417  12.498168489011 5.23076923076923  12.498168489011 6.52014651098901  Z M 8.98168497252747 6.52014651098901  C 8.98168497252747 7.22344318681318  9.56776554945055 7.69230769230769  10.1538461538462 7.69230769230769  C 10.8571428571429 7.69230769230769  11.3260073351648 7.22344321428571  11.3260073351648 6.52014651098901  C 11.3260073351648 5.8168498076923  10.8571428571429 5.34798532967033  10.1538461538462 5.34798535714285  C 9.45054945054945 5.34798538461538  8.98168497252747 5.81684983516483  8.98168497252747 6.52014651098901  Z " fill-rule="nonzero" fill="#1d33a2" stroke="none" transform="matrix(1 0 0 1 185 92 )" />
  </g>
</svg>