<?xml version="1.0" encoding="UTF-8"?>
<svg width="24px" height="24px" viewBox="0 0 24 24" version="1.1" xmlns="http://www.w3.org/2000/svg" xmlns:xlink="http://www.w3.org/1999/xlink">
    <title>icon/业务类/物联平台/云端版/物模型管理/模拟计算</title>
    <g id="icon/业务类/物联平台/云端版/物模型管理/模拟计算" stroke="none" stroke-width="1" fill="none" fill-rule="evenodd">
        <path d="M22,1.25 L22.017448,1.25020172 C22.0374655,1.25066463 22.0574681,1.25192429 22.077404,1.2539807 L22,1.25 C22.0468456,1.25 22.092688,1.25429489 22.1371551,1.26251238 C22.1480328,1.26457582 22.1597261,1.26701468 22.171367,1.26973472 C22.1948272,1.27517085 22.2172835,1.28157935 22.2392836,1.28898031 C22.2490913,1.29230301 22.2594565,1.29602848 22.2697519,1.29998933 C22.2890942,1.30744952 22.3075139,1.315445 22.3255328,1.32413984 C22.3399909,1.33105843 22.3546244,1.3387019 22.3690453,1.34686081 C22.3840547,1.35542435 22.3988662,1.36450478 22.4133267,1.37407291 C22.4261415,1.38247033 22.4389063,1.3914962 22.4514416,1.40096775 C22.5072396,1.44317757 22.5568224,1.49276037 22.5988352,1.54838075 L22.5303301,1.46966991 C22.5647711,1.50411092 22.5951622,1.54106819 22.6215034,1.57994996 C22.6325387,1.59634194 22.643187,1.61349194 22.653145,1.63108416 C22.6612981,1.64537558 22.6689416,1.66000914 22.6760696,1.67482849 C22.684555,1.69248608 22.6925505,1.71090579 22.6998114,1.72969108 C22.7039715,1.74054351 22.707697,1.75090869 22.7111871,1.76133534 C22.7184207,1.78271655 22.7248291,1.8051728 22.730192,1.82803188 C22.7329853,1.8402739 22.7354242,1.85196718 22.7375819,1.863702 C22.7412529,1.88321991 22.7441946,1.90388367 22.746277,1.92480039 C22.7478395,1.94090188 22.7488867,1.95623781 22.749465,1.97158812 C22.7498115,1.98041626 22.75,1.99018612 22.75,2 L22.75,17 C22.75,17.0765395 22.7385347,17.1504011 22.7172279,17.219961 C22.7136812,17.2308802 22.7098803,17.2423134 22.7058076,17.2536456 C22.6975009,17.2772912 22.6881556,17.2996893 22.6777878,17.3215074 C22.672545,17.3321825 22.6668242,17.3435232 22.6608154,17.3547179 C22.6499448,17.375195 22.6383468,17.3945565 22.6259271,17.4133267 C22.617497,17.4259546 22.608648,17.4385077 22.5994031,17.4507999 C22.5976312,17.4532201 22.5956876,17.4557678 22.5937281,17.4583026 L22.5303301,17.5303301 L17.5303301,22.5303301 C17.5054475,22.5552127 17.4788246,22.578355 17.4506597,22.5995589 L17.5303301,22.5303301 C17.4943231,22.5663371 17.4550319,22.5983048 17.4131606,22.6259415 C17.39548,22.6377358 17.3770988,22.6488016 17.3582272,22.6590805 C17.3456145,22.6657662 17.3332411,22.6720442 17.3207074,22.6779729 C17.2996893,22.6881556 17.2772912,22.6975009 17.254375,22.7057618 C17.2423134,22.7098803 17.2308802,22.7136812 17.2193556,22.7172063 C17.1916945,22.7258862 17.1627176,22.7329193 17.1331393,22.7382184 C17.1262433,22.7393276 17.1201729,22.7403386 17.1140865,22.7412752 C17.0774947,22.7470085 17.0390967,22.75 17,22.75 L2,22.75 L1.97158812,22.749465 C1.95623781,22.7488867 1.94090188,22.7478395 1.92560364,22.7463234 L2,22.75 C1.95315442,22.75 1.90731196,22.7457051 1.86284491,22.7374876 C1.85196718,22.7354242 1.8402739,22.7329853 1.82863298,22.7302653 C1.8051728,22.7248291 1.78271655,22.7184207 1.76071635,22.7110197 C1.75090869,22.707697 1.74054351,22.7039715 1.73024809,22.7000107 C1.71090579,22.6925505 1.69248608,22.684555 1.67446717,22.6758602 C1.66000914,22.6689416 1.64537558,22.6612981 1.63095468,22.6531392 C1.61349194,22.643187 1.59634194,22.6325387 1.57967093,22.6212371 C1.56933877,22.6143147 1.55887091,22.6068243 1.54855842,22.5990323 C1.49276037,22.5568224 1.44317757,22.5072396 1.40116475,22.4516193 L1.46966991,22.5303301 C1.43522891,22.4958891 1.40483779,22.4589318 1.37849655,22.42005 C1.36746126,22.4036581 1.35681304,22.3865081 1.34685504,22.3689158 C1.3387019,22.3546244 1.33105843,22.3399909 1.3239304,22.3251715 C1.315445,22.3075139 1.30744952,22.2890942 1.30018864,22.2703089 C1.29602848,22.2594565 1.29230301,22.2490913 1.28881291,22.2386647 C1.28157935,22.2172835 1.27517085,22.1948272 1.26980803,22.1719681 C1.26701468,22.1597261 1.26457582,22.1480328 1.26241813,22.136298 C1.25891107,22.1176674 1.25606315,22.0979156 1.25399994,22.077931 C1.25192429,22.0574681 1.25066463,22.0374655 1.25020172,22.017448 C1.25006606,22.0116044 1.25,22.0058099 1.25,22 L1.25,6.996 L1.25684662,6.89822944 C1.26234285,6.85771515 1.27107426,6.81822876 1.28277213,6.78003897 C1.28631883,6.76911984 1.29011974,6.75768657 1.29419239,6.74635442 C1.3024991,6.72270882 1.31184444,6.70031071 1.32221224,6.67849256 C1.32795576,6.66675889 1.33423379,6.6543855 1.34085495,6.64218748 C1.35119841,6.6229012 1.36226424,6.60452002 1.37407291,6.58667334 C1.38250303,6.57404542 1.39135195,6.56149229 1.40059691,6.54920014 C1.42164497,6.5211754 1.44478731,6.49455252 1.46966991,6.46966991 L6.46966991,1.46966991 L6.54169736,1.40627192 C6.54423217,1.40431241 6.54677987,1.40236877 6.54934032,1.40044115 L6.46966991,1.46966991 C6.5056769,1.43366293 6.5449681,1.40169523 6.58683944,1.37405846 C6.60452002,1.36226424 6.6229012,1.35119841 6.64177281,1.34091948 C6.6543855,1.33423379 6.66675889,1.32795576 6.67929261,1.32202709 C6.70031071,1.31184444 6.72270882,1.3024991 6.74562497,1.29423815 C6.75768657,1.29011974 6.76911984,1.28631883 6.78064437,1.28279374 C6.80830553,1.27411383 6.83728243,1.26708067 6.8668607,1.26178161 C6.87375673,1.26067244 6.87982711,1.25966144 6.88591346,1.25872476 C6.92120757,1.2531912 6.95824551,1.25021048 6.9959416,1.25001075 L22,1.25 Z M16.25,17.75 L7.31,17.75 L3.81,21.25 L16.25,21.25 L16.25,17.75 Z M20.188,17.75 L17.75,17.75 L17.75,20.188 L20.188,17.75 Z M6.25,7.75 L2.75,7.75 L2.75,20.188 L6.25,16.688 L6.25,7.75 Z M16.25,7.75 L7.75,7.75 L7.75,16.25 L16.25,16.25 L16.25,7.75 Z M21.25,3.81 L17.75,7.31 L17.75,16.25 L21.25,16.25 L21.25,3.81 Z M20.188,2.75 L7.75,2.75 L7.75,6.25 L16.688,6.25 L20.188,2.75 Z M6.25,3.81 L3.81,6.25 L6.25,6.25 L6.25,3.81 Z" id="形状结合" fill="#333333" fill-rule="nonzero"></path>
    </g>
</svg>